<?xml version="1.0" standalone="no"?>
<!DOCTYPE svg PUBLIC "-//W3C//DTD SVG 20010904//EN"
 "http://www.w3.org/TR/2001/REC-SVG-20010904/DTD/svg10.dtd">
<svg version="1.0" xmlns="http://www.w3.org/2000/svg"
 width="600.000000pt" height="355.000000pt" viewBox="0 0 600.000000 355.000000"
 preserveAspectRatio="xMidYMid meet">
<g transform="translate(0.000000,355.000000) scale(0.100000,-0.100000)"
fill="#000000" stroke="none">
<path d="M2953 3503 l2947 -3 0 -1700 c0 -935 3 -1700 8 -1700 4 0 7 767 7
1705 l0 1705 -2955 -2 -2955 -3 2948 -2z"/>
<path d="M12 1788 l-2 -1708 2953 2 2952 3 -2947 2 -2948 3 -3 1703 -2 1702
-3 -1707z"/>
<path d="M2570 3255 c0 -50 4 -85 10 -85 6 0 10 29 10 68 l0 67 41 -67 c57
-93 69 -90 69 17 0 68 -3 85 -15 85 -12 0 -14 -11 -8 -60 3 -33 2 -60 -3 -60
-5 0 -25 27 -43 60 -49 84 -61 79 -61 -25z"/>
<path d="M2730 3255 l0 -85 54 0 c30 0 57 4 60 9 9 13 -20 21 -54 14 l-30 -5
0 76 c0 61 -3 76 -15 76 -12 0 -15 -16 -15 -85z"/>
<path d="M2860 3254 c0 -64 3 -85 13 -81 7 2 11 16 9 35 -3 30 -2 32 31 32 36
0 47 -12 47 -51 0 -10 7 -19 15 -19 15 0 14 19 -1 68 -2 7 1 22 7 33 8 16 7
26 -6 45 -13 20 -24 24 -65 24 l-50 0 0 -86z m88 57 c8 -5 12 -17 10 -27 -2
-14 -13 -20 -41 -22 -35 -3 -37 -2 -37 27 0 27 3 31 28 31 15 0 33 -4 40 -9z"/>
<path d="M3020 3255 c0 -50 4 -85 10 -85 6 0 10 16 10 35 0 34 1 35 38 35 43
0 62 14 62 46 0 35 -26 54 -76 54 l-44 0 0 -85z m85 51 c16 -12 17 -16 6 -30
-7 -9 -26 -16 -42 -16 -26 0 -29 4 -29 30 0 25 4 30 23 30 13 0 32 -6 42 -14z"/>
<path d="M3260 3320 c-24 -24 -26 -40 -5 -40 8 0 15 6 15 14 0 16 19 25 38 19
17 -6 15 -43 -2 -43 -27 0 -27 -20 -1 -30 29 -11 29 -27 1 -44 -14 -9 -21 -7
-33 12 -19 27 -33 29 -33 4 0 -27 20 -42 56 -42 50 0 78 56 41 81 -5 4 -3 16
5 28 12 20 10 24 -11 42 -30 24 -46 24 -71 -1z"/>
<path d="M3157 3243 c-15 -15 -5 -23 28 -23 24 0 35 5 35 15 0 15 -50 22 -63
8z"/>
<path d="M483 2947 c-28 -41 -29 -57 -4 -57 11 0 22 -6 24 -12 4 -10 8 -10 14
-1 9 13 5 103 -6 103 -3 0 -16 -15 -28 -33z"/>
<path d="M551 2966 c-7 -8 -11 -32 -9 -53 3 -35 5 -38 33 -38 28 0 30 3 33 38
3 39 -10 67 -33 67 -7 0 -18 -6 -24 -14z m37 -49 c2 -28 -1 -37 -12 -37 -12 0
-16 11 -16 41 0 52 24 48 28 -4z"/>
<path d="M672 2968 c-19 -19 -15 -86 6 -97 29 -16 52 5 52 47 0 38 -14 62 -35
62 -6 0 -16 -5 -23 -12z m38 -48 c0 -28 -4 -40 -14 -40 -18 0 -30 33 -21 60
12 37 35 23 35 -20z"/>
<path d="M1258 2913 c215 -2 569 -2 785 0 215 1 39 2 -393 2 -432 0 -608 -1
-392 -2z"/>
<path d="M2450 2849 c0 -49 4 -69 12 -67 6 2 11 27 12 59 l1 54 468 3 467 2 0
-160 c0 -100 4 -160 10 -160 6 0 10 63 10 170 l0 170 -490 0 -490 0 0 -71z"/>
<path d="M4023 2913 c312 -2 822 -2 1135 0 312 1 56 2 -568 2 -624 0 -880 -1
-567 -2z"/>
<path d="M623 2870 c1 -11 5 -20 9 -20 4 0 8 9 8 20 0 11 -4 20 -9 20 -6 0 -9
-9 -8 -20z"/>
<path d="M2664 2872 c-5 -4 -10 -13 -11 -19 -4 -18 34 -16 40 1 6 16 -14 28
-29 18z"/>
<path d="M2969 2856 c-17 -37 -4 -76 25 -76 13 0 27 7 30 16 24 61 -29 118
-55 60z m39 -28 c-2 -18 -7 -33 -13 -33 -5 0 -11 15 -13 33 -3 24 1 32 13 32
12 0 16 -8 13 -32z"/>
<path d="M3082 2868 c-13 -13 -16 -47 -6 -72 7 -17 54 -22 54 -6 0 6 11 10 25
10 14 0 25 -5 25 -11 0 -6 8 -3 17 7 13 13 14 19 5 22 -6 2 -12 17 -12 33 0
17 -4 28 -10 24 -5 -3 -7 -19 -3 -35 3 -20 1 -30 -6 -30 -8 0 -10 8 -6 23 6
21 6 21 -9 3 -16 -20 -16 -20 -16 0 0 22 -18 44 -35 44 -6 0 -16 -5 -23 -12z
m36 -40 c-3 -34 -20 -42 -26 -13 -5 22 5 45 18 45 7 0 10 -14 8 -32z"/>
<path d="M3232 2865 c-7 -9 -8 -15 -2 -15 5 0 10 -16 10 -35 0 -19 5 -35 10
-35 6 0 10 23 10 50 0 52 -6 59 -28 35z"/>
<path d="M278 2848 c-16 -5 -28 -14 -28 -20 0 -6 7 -7 18 -2 31 13 89 16 111
5 14 -8 21 -8 21 -1 0 25 -73 36 -122 18z"/>
<path d="M2741 2798 c1 -29 3 -45 6 -35 2 9 13 17 23 17 11 0 24 9 30 21 14
26 -3 49 -36 49 -22 0 -24 -4 -23 -52z m46 26 c8 -21 -13 -42 -28 -27 -13 13
-5 43 11 43 6 0 13 -7 17 -16z"/>
<path d="M2855 2830 c-4 -6 10 -10 35 -10 25 0 39 4 35 10 -3 6 -19 10 -35 10
-16 0 -32 -4 -35 -10z"/>
<path d="M350 2789 c0 -30 -1 -30 -42 -27 -24 2 -44 -1 -46 -7 -1 -6 22 -11
53 -13 47 -3 55 0 56 15 1 10 3 28 4 41 1 13 -3 22 -11 22 -9 0 -14 -11 -14
-31z"/>
<path d="M2855 2800 c3 -5 19 -10 36 -10 16 0 29 5 29 10 0 6 -16 10 -36 10
-21 0 -33 -4 -29 -10z"/>
<path d="M4093 2788 c-2 -5 3 -8 11 -8 13 0 16 -38 18 -295 l3 -295 -50 0 -50
0 0 -685 0 -685 108 0 107 0 0 685 0 685 -50 0 -50 0 0 295 c0 256 2 295 15
295 8 0 15 3 15 8 0 4 -16 7 -36 7 -20 0 -38 -3 -41 -7z m28 -909 c0 -263 -2
-284 -18 -291 -12 -4 -6 -7 20 -7 20 -1 37 4 37 10 0 5 -4 7 -10 4 -7 -4 -10
93 -10 284 l0 291 33 -13 32 -13 3 -621 c1 -389 -1 -630 -7 -646 -10 -25 -14
-26 -70 -24 -33 2 -63 6 -67 9 -12 12 -10 1272 2 1284 9 11 45 23 52 19 1 -1
3 -130 3 -286z"/>
<path d="M260 2713 c0 -7 6 -12 12 -10 7 1 14 -8 16 -21 4 -27 31 -43 60 -36
25 7 33 25 24 56 -6 20 -13 23 -59 23 -37 1 -53 -3 -53 -12z m90 -18 c15 -18
5 -35 -20 -35 -22 0 -34 15 -26 35 7 19 30 19 46 0z"/>
<path d="M467 2703 c-4 -3 -7 -12 -7 -20 0 -11 4 -11 20 -1 26 16 39 2 14 -17
-17 -13 -17 -14 -1 -15 9 0 17 -7 17 -15 0 -18 -21 -20 -38 -3 -9 9 -12 8 -12
-4 0 -23 16 -31 45 -24 25 6 27 19 16 99 -1 9 -45 9 -54 0z"/>
<path d="M550 2696 c0 -8 -3 -22 -6 -30 -5 -12 -1 -16 17 -14 16 2 24 -3 27
-16 3 -16 0 -18 -22 -12 -14 3 -26 2 -26 -3 0 -16 20 -23 46 -17 17 5 24 13
24 31 0 24 -31 51 -44 38 -3 -3 -6 -1 -6 5 0 7 9 12 19 12 11 0 23 5 26 10 4
6 -7 10 -24 10 -20 0 -31 -5 -31 -14z"/>
<path d="M667 2704 c-13 -14 -7 -81 9 -95 27 -22 49 1 49 52 0 40 -3 44 -25
47 -14 2 -29 0 -33 -4z m43 -48 c0 -42 -15 -54 -30 -26 -13 25 -4 60 16 60 9
0 14 -11 14 -34z"/>
<path d="M2150 2700 c0 -5 7 -10 15 -10 13 0 15 -36 15 -260 l0 -260 -50 0
-50 0 0 -675 0 -675 110 0 110 0 0 675 0 675 -52 0 -53 0 3 257 c2 228 5 258
20 269 15 12 12 13 -25 14 -24 0 -43 -4 -43 -10z m30 -785 c0 -150 4 -235 10
-235 6 0 10 85 10 235 0 206 2 235 16 235 8 0 12 -4 9 -10 -3 -6 1 -7 9 -4 11
4 16 0 16 -12 0 -16 2 -17 10 -4 6 10 10 -207 10 -621 l0 -637 -22 -6 c-36 -9
-97 -7 -119 4 -18 10 -19 28 -19 640 0 619 0 629 20 635 11 3 25 3 31 -1 8 -4
9 -3 5 4 -4 7 -2 12 3 12 8 0 11 -76 11 -235z"/>
<path d="M2180 1658 c0 -9 -6 -19 -12 -21 -7 -3 5 -5 27 -5 22 0 33 2 25 5 -8
4 -20 13 -27 22 -11 15 -12 14 -13 -1z"/>
<path d="M2420 2690 c0 -5 9 -10 20 -10 20 0 20 -7 20 -285 l0 -285 -50 0 -50
0 0 -645 0 -645 105 0 105 0 0 645 0 645 -47 0 -48 0 0 285 c0 221 3 285 13
285 6 0 12 5 12 10 0 6 -18 10 -40 10 -22 0 -40 -4 -40 -10z m40 -870 c0 -276
0 -280 -21 -280 -11 0 -18 -4 -15 -9 3 -5 22 -9 41 -9 19 0 35 4 35 9 0 5 -7
9 -15 9 -13 0 -15 36 -15 263 0 144 4 268 9 276 8 12 14 13 35 3 l26 -11 0
-600 c0 -582 -1 -601 -19 -611 -29 -15 -107 -12 -120 4 -15 18 -21 726 -6 726
7 0 7 3 0 8 -6 4 -10 59 -10 127 0 68 4 123 10 127 7 5 7 8 0 8 -6 0 -9 41 -7
108 l3 108 32 11 c18 5 33 11 35 12 1 0 2 -125 2 -279z"/>
<path d="M1188 2653 c184 -2 481 -2 660 0 180 1 30 2 -333 2 -363 0 -510 -1
-327 -2z"/>
<path d="M2268 2653 c34 -2 88 -2 120 0 31 2 3 3 -63 3 -66 0 -92 -1 -57 -3z"/>
<path d="M2718 2653 c128 -2 335 -2 460 0 125 1 20 2 -233 2 -253 0 -355 -1
-227 -2z"/>
<path d="M3613 2653 c92 -2 242 -2 335 0 92 1 16 3 -168 3 -184 0 -260 -2
-167 -3z"/>
<path d="M4542 2653 c219 -2 577 -2 795 0 219 1 40 2 -397 2 -437 0 -616 -1
-398 -2z"/>
<path d="M250 2633 c0 -9 121 -55 128 -48 3 2 -15 13 -39 23 -63 27 -89 35
-89 25z"/>
<path d="M623 2600 c1 -11 5 -20 9 -20 4 0 8 9 8 20 0 11 -4 20 -9 20 -6 0 -9
-9 -8 -20z"/>
<path d="M288 2545 c-5 -26 17 -55 43 -55 20 0 39 20 39 42 0 10 5 18 11 18 7
0 8 -11 4 -30 -8 -34 -1 -39 15 -10 20 37 -3 60 -59 60 -44 0 -49 -2 -53 -25z
m67 -15 c0 -18 -33 -26 -47 -12 -6 6 -7 15 -3 22 10 16 50 8 50 -10z"/>
<path d="M297 2473 c-4 -3 -7 -19 -7 -35 0 -27 2 -28 47 -28 51 0 50 16 -1 22
-44 5 -46 28 -2 28 20 0 36 5 36 10 0 11 -63 14 -73 3z"/>
<path d="M3400 2460 c0 -5 7 -10 15 -10 13 0 15 -35 15 -254 l0 -253 -50 5
-50 5 0 -567 0 -566 108 0 107 0 0 566 0 566 -52 -4 -52 -5 -1 224 0 223 338
3 337 2 -337 3 -338 2 0 25 c0 15 6 25 14 25 8 0 18 5 21 10 4 6 -10 10 -34
10 -23 0 -41 -4 -41 -10z m30 -779 l0 -250 -22 -4 c-13 -2 0 -4 27 -4 28 0 40
2 28 4 l-23 4 0 245 0 244 30 0 c19 0 33 -7 39 -19 7 -12 9 -196 7 -526 -3
-418 -6 -509 -17 -516 -18 -11 -110 -11 -127 -1 -9 7 -12 69 -12 268 0 266 0
308 -3 601 -2 192 -7 178 71 202 1 1 2 -111 2 -248z"/>
<path d="M463 2435 c-3 -9 -2 -19 2 -23 4 -4 10 -1 12 6 6 15 33 16 33 2 0 -6
-7 -13 -17 -17 -14 -5 -13 -7 5 -14 14 -5 20 -14 16 -24 -7 -18 -25 -19 -43
-2 -11 10 -13 9 -9 -3 3 -9 17 -15 34 -15 27 0 29 3 30 40 0 22 -4 46 -9 53
-13 17 -46 15 -54 -3z"/>
<path d="M552 2438 c-14 -14 -16 -67 -3 -86 4 -8 19 -12 32 -10 20 2 25 10 27
41 5 55 -26 85 -56 55z m36 -45 c-2 -21 -7 -38 -13 -38 -5 0 -11 17 -13 38 -3
29 0 37 13 37 13 0 16 -8 13 -37z"/>
<path d="M666 2434 c-22 -57 7 -115 47 -93 20 12 24 78 5 97 -17 17 -45 15
-52 -4z m44 -44 c0 -43 -23 -57 -35 -20 -9 27 3 60 21 60 10 0 14 -12 14 -40z"/>
<path d="M254 2391 c18 -29 123 -30 150 0 8 9 4 10 -19 3 -39 -10 -84 -11
-114 0 -16 6 -21 5 -17 -3z"/>
<path d="M1188 2393 c184 -2 481 -2 660 0 180 1 30 2 -333 2 -363 0 -510 -1
-327 -2z"/>
<path d="M2268 2393 c34 -2 90 -2 125 0 34 2 6 3 -63 3 -69 0 -97 -1 -62 -3z"/>
<path d="M2723 2393 c131 -2 343 -2 470 0 128 1 21 2 -238 2 -258 0 -363 -1
-232 -2z"/>
<path d="M4542 2393 c219 -2 577 -2 795 0 219 1 40 2 -397 2 -437 0 -616 -1
-398 -2z"/>
<path d="M623 2335 c0 -13 3 -22 8 -19 5 3 9 14 9 25 0 10 -4 19 -9 19 -5 0
-8 -11 -8 -25z"/>
<path d="M300 2301 c-29 -5 -36 -11 -38 -34 -2 -18 2 -29 13 -33 24 -10 31 4
10 20 -13 10 -15 15 -6 21 7 4 18 2 24 -4 7 -7 14 -5 23 7 10 13 15 14 25 5
10 -10 9 -17 -6 -33 -10 -11 -15 -20 -11 -20 4 0 0 -7 -9 -16 -17 -18 -16 -35
3 -42 7 -2 12 6 12 21 0 13 9 32 20 42 11 10 20 24 20 31 0 14 -28 45 -38 43
-4 -1 -23 -4 -42 -8z"/>
<path d="M473 2183 c-15 -6 -17 -33 -3 -33 6 0 10 5 10 10 0 6 7 10 15 10 24
0 18 -28 -10 -46 -38 -25 -32 -44 13 -43 30 2 32 3 10 6 -32 5 -37 19 -9 28
25 8 36 41 21 60 -13 15 -25 17 -47 8z"/>
<path d="M550 2176 c0 -8 -3 -22 -7 -32 -5 -14 -2 -16 16 -11 26 6 41 -18 21
-36 -10 -9 -14 -9 -17 1 -3 6 -12 12 -20 12 -13 0 -13 -3 -3 -16 8 -8 25 -14
39 -12 22 2 26 8 26 33 0 23 -5 31 -22 33 -31 5 -29 22 2 22 14 0 25 5 25 10
0 6 -13 10 -30 10 -19 0 -30 -5 -30 -14z"/>
<path d="M672 2178 c-19 -19 -15 -86 6 -97 29 -16 52 5 52 47 0 38 -14 62 -35
62 -6 0 -16 -5 -23 -12z m38 -48 c0 -45 -24 -56 -34 -16 -7 30 2 56 20 56 10
0 14 -12 14 -40z"/>
<path d="M265 2138 c-5 -17 -8 -39 -6 -60 1 -15 11 -18 55 -18 30 0 58 5 61
10 4 6 -5 10 -19 10 -20 0 -26 5 -26 23 0 13 -5 28 -12 35 -16 16 -47 15 -53
0z m45 -33 c0 -18 -5 -25 -20 -25 -20 0 -28 28 -13 43 15 16 33 6 33 -18z"/>
<path d="M1168 2123 c167 -2 437 -2 600 0 163 1 27 2 -303 2 -330 0 -464 -1
-297 -2z"/>
<path d="M2698 2123 c78 -2 206 -2 285 0 78 1 14 3 -143 3 -157 0 -221 -2
-142 -3z"/>
<path d="M3253 2123 c32 -2 81 -2 110 0 29 2 3 3 -58 3 -60 0 -84 -1 -52 -3z"/>
<path d="M3593 2123 c75 -2 199 -2 275 0 75 1 13 3 -138 3 -151 0 -213 -2
-137 -3z"/>
<path d="M4623 2123 c202 -2 532 -2 735 0 202 1 36 2 -368 2 -404 0 -570 -1
-367 -2z"/>
<path d="M3133 2103 c14 -4 17 -17 17 -89 l0 -84 -50 0 -50 0 0 -555 0 -555
110 0 110 0 0 555 0 555 -53 0 -52 0 2 82 c1 54 6 84 15 89 8 5 -3 8 -27 8
-22 -1 -32 -3 -22 -6z m-17 -201 c-3 -5 1 -9 9 -9 8 0 12 4 9 9 -3 4 0 8 5 8
7 0 11 -29 11 -75 0 -63 -3 -75 -17 -75 -9 0 -13 -3 -10 -7 10 -10 67 -11 67
-1 0 4 -7 8 -15 8 -12 0 -15 14 -15 69 0 65 13 98 29 73 3 -6 15 -10 26 -9 20
2 20 -6 23 -507 1 -282 -2 -514 -7 -519 -4 -4 -38 -9 -75 -10 -59 -2 -67 0
-72 18 -2 11 -5 244 -7 518 -1 392 1 497 11 497 6 0 12 5 12 10 0 6 5 10 11
10 5 0 8 -4 5 -8z"/>
<path d="M623 2080 c1 -11 5 -20 9 -20 4 0 8 9 8 20 0 11 -4 20 -9 20 -6 0 -9
-9 -8 -20z"/>
<path d="M345 2040 c-11 -4 -32 -5 -47 -3 -22 4 -29 1 -36 -17 -5 -13 -7 -34
-4 -47 4 -21 10 -23 58 -23 29 0 56 5 59 10 4 6 -5 10 -19 10 -21 0 -26 5 -26
25 0 18 5 25 19 25 21 0 37 16 24 23 -5 2 -17 1 -28 -3z m-35 -45 c0 -18 -5
-25 -20 -25 -20 0 -28 28 -13 43 15 16 33 6 33 -18z"/>
<path d="M1455 1980 c3 -5 12 -10 18 -10 9 0 12 -44 12 -165 l0 -165 -50 0
-50 0 3 -410 2 -410 105 0 105 0 0 410 0 410 -47 0 -48 0 0 165 c0 121 3 165
12 165 6 0 15 5 18 10 4 6 -12 10 -40 10 -28 0 -44 -4 -40 -10z m33 -518 c2
-131 0 -152 -13 -152 -8 0 -15 -4 -15 -10 0 -5 16 -10 35 -10 19 0 35 5 35 10
0 6 -7 10 -15 10 -13 0 -15 21 -13 153 l3 152 25 -3 c13 -1 28 -6 33 -11 10
-10 12 -698 3 -728 -5 -15 -17 -20 -57 -22 -98 -4 -89 -41 -89 384 l0 374 23
4 c12 2 27 3 32 2 6 -1 11 -62 13 -153z"/>
<path d="M5340 1959 c0 -6 7 -9 15 -5 13 4 15 -11 16 -99 1 -58 2 -113 3 -122
1 -14 -7 -17 -51 -14 l-53 2 0 -450 0 -451 108 0 107 0 0 451 0 451 -48 -4
-47 -3 0 123 c0 74 4 121 9 117 5 -3 12 -1 16 5 4 6 -9 10 -34 10 -23 0 -41
-5 -41 -11z m39 -391 c1 -93 0 -97 -21 -101 -13 -2 -3 -4 22 -4 25 -1 37 1 28
4 -16 4 -18 18 -18 117 l0 113 25 -5 c14 -2 28 -9 31 -14 3 -5 5 -189 5 -410
0 -314 -3 -403 -13 -410 -20 -12 -113 -9 -126 4 -9 9 -12 115 -12 415 l0 402
33 9 c42 11 45 2 46 -120z"/>
<path d="M354 1910 l6 -30 -56 0 c-34 0 -53 -4 -49 -10 7 -11 115 -14 116 -2
0 4 2 22 3 40 3 23 0 32 -11 32 -12 0 -14 -7 -9 -30z"/>
<path d="M467 1914 c-4 -4 -7 -14 -7 -23 1 -13 3 -13 15 3 14 18 35 15 35 -6
0 -5 -11 -19 -25 -30 -36 -28 -32 -48 10 -48 19 0 35 5 35 10 0 6 -12 10 -27
10 l-28 0 29 23 c35 28 33 61 -4 65 -14 2 -29 0 -33 -4z"/>
<path d="M546 1905 c-20 -52 8 -110 42 -88 12 7 17 24 17 54 0 40 -2 44 -26
47 -17 2 -29 -3 -33 -13z m44 -41 c0 -24 -5 -34 -15 -34 -10 0 -15 10 -15 33
0 19 3 37 6 40 13 13 24 -5 24 -39z"/>
<path d="M667 1914 c-13 -14 -7 -81 9 -95 27 -22 49 1 49 52 0 40 -3 44 -25
47 -14 2 -29 0 -33 -4z m41 -47 c2 -28 -1 -37 -12 -37 -18 0 -30 33 -21 61 10
31 30 17 33 -24z"/>
<path d="M1013 1863 c87 -2 227 -2 310 0 84 1 13 3 -158 3 -171 0 -239 -2
-152 -3z"/>
<path d="M1653 1863 c75 -2 199 -2 275 0 75 1 13 3 -138 3 -151 0 -213 -2
-137 -3z"/>
<path d="M2693 1863 c65 -2 168 -2 230 0 62 1 9 3 -118 3 -126 0 -177 -2 -112
-3z"/>
<path d="M3668 1863 c61 -2 163 -2 225 0 61 1 11 3 -113 3 -124 0 -174 -2
-112 -3z"/>
<path d="M4532 1863 c153 -2 403 -2 555 0 153 1 28 2 -277 2 -305 0 -430 -1
-278 -2z"/>
<path d="M5483 1863 c48 -2 125 -2 170 0 45 1 6 3 -88 3 -93 0 -130 -2 -82 -3z"/>
<path d="M256 1831 c5 -5 24 -11 43 -13 l34 -3 -38 -25 c-21 -14 -39 -29 -39
-33 -1 -5 24 -10 54 -10 31 -1 55 2 55 8 0 6 -15 9 -32 8 -42 -3 -41 6 2 35
19 12 35 27 35 32 0 6 -28 10 -62 10 -38 0 -58 -4 -52 -9z"/>
<path d="M623 1810 c1 -11 5 -20 9 -20 4 0 8 9 8 20 0 11 -4 20 -9 20 -6 0 -9
-9 -8 -20z"/>
<path d="M4370 1790 c0 -5 8 -10 18 -10 15 0 17 -11 17 -80 l0 -80 -52 0 -53
0 0 -400 0 -400 108 0 107 0 0 400 0 400 -47 0 -48 0 0 80 c0 64 3 80 15 80 8
0 15 5 15 10 0 6 -18 10 -40 10 -22 0 -40 -4 -40 -10z m38 -268 c3 -67 2 -71
-20 -75 -13 -2 -3 -4 22 -4 25 -1 37 1 28 4 -15 4 -18 16 -18 79 0 64 2 74 18
74 39 0 44 -13 40 -114 -2 -53 -1 -96 2 -96 3 0 4 -118 3 -262 -2 -197 -6
-264 -15 -270 -7 -4 -34 -8 -60 -8 -81 0 -79 -7 -76 306 2 178 -1 274 -7 275
-6 0 -6 2 0 5 6 2 9 22 7 44 -7 65 5 108 31 113 39 7 42 2 45 -71z"/>
<path d="M5070 1770 c0 -5 7 -10 15 -10 12 0 15 -13 15 -61 l0 -60 -52 2 -53
3 -3 -412 -2 -412 110 0 110 0 0 405 c0 223 0 408 0 412 0 4 -23 6 -50 4 l-50
-2 0 60 c0 48 3 61 15 61 8 0 15 5 15 10 0 6 -16 10 -35 10 -19 0 -35 -4 -35
-10z m30 -199 c0 -39 -4 -51 -17 -54 -10 -3 -2 -5 17 -5 19 0 29 2 23 5 -8 3
-13 24 -13 55 l0 51 32 -7 c17 -3 33 -7 34 -9 4 -4 6 -124 5 -439 l-1 -308
-75 0 -75 0 -1 108 c-1 116 -1 623 0 634 1 6 25 13 59 17 8 1 12 -15 12 -48z"/>
<path d="M1180 1720 c0 -5 6 -9 13 -7 8 1 13 -18 15 -65 l3 -68 -53 0 -53 0 0
-380 0 -380 108 0 107 0 0 380 0 380 -50 0 -51 0 3 68 c2 43 7 67 15 67 6 0
15 3 19 8 4 4 -11 7 -34 7 -23 0 -42 -4 -42 -10z m32 -212 l1 -53 6 50 c6 46
8 50 34 51 15 1 30 -2 32 -6 4 -7 7 -260 5 -582 l0 -108 -75 0 -74 0 -3 298
c-3 347 -1 382 27 393 40 15 45 11 47 -43z"/>
<path d="M1193 1443 c15 -2 37 -2 50 0 12 2 0 4 -28 4 -27 0 -38 -2 -22 -4z"/>
<path d="M250 1681 c0 -16 48 -42 56 -30 3 6 19 9 35 5 15 -3 31 -1 34 4 4 6
-11 10 -34 10 -26 0 -41 5 -41 13 0 8 -4 7 -11 -3 -8 -11 -12 -12 -16 -2 -5
14 -23 17 -23 3z"/>
<path d="M480 1650 c-20 -16 -22 -20 -7 -20 13 0 17 -9 17 -40 0 -22 5 -40 10
-40 6 0 10 27 10 60 0 33 -1 60 -2 60 -2 0 -14 -9 -28 -20z"/>
<path d="M676 1657 c-13 -9 -17 -24 -14 -51 6 -76 68 -71 68 5 0 45 -26 67
-54 46z m32 -50 c2 -28 -1 -37 -12 -37 -18 0 -30 33 -21 61 10 31 30 17 33
-24z"/>
<path d="M540 1630 c0 -27 2 -30 25 -24 21 5 25 3 25 -15 0 -23 -19 -28 -39
-8 -10 10 -12 8 -9 -8 7 -42 68 -24 68 20 0 23 -24 40 -41 29 -5 -3 -9 2 -9
10 0 8 12 16 28 19 22 3 20 4 -10 6 -36 1 -38 -1 -38 -29z"/>
<path d="M290 1610 c-16 -30 4 -60 41 -60 36 0 60 39 39 65 -18 22 -67 19 -80
-5z m63 -6 c11 -11 -5 -34 -23 -34 -22 0 -34 15 -25 30 7 11 38 14 48 4z"/>
<path d="M922 1603 c37 -2 100 -2 140 0 40 1 10 3 -67 3 -77 0 -110 -1 -73 -3z"/>
<path d="M1323 1603 c9 -2 25 -2 35 0 9 3 1 5 -18 5 -19 0 -27 -2 -17 -5z"/>
<path d="M1728 1603 c61 -2 163 -2 225 0 61 1 11 3 -113 3 -124 0 -174 -2
-112 -3z"/>
<path d="M2698 1603 c61 -2 163 -2 225 0 61 1 11 3 -113 3 -124 0 -174 -2
-112 -3z"/>
<path d="M3672 1603 c59 -2 158 -2 220 0 62 1 14 3 -107 3 -121 0 -172 -2
-113 -3z"/>
<path d="M4642 1603 c59 -2 158 -2 220 0 62 1 14 3 -107 3 -121 0 -172 -2
-113 -3z"/>
<path d="M5563 1603 c31 -2 83 -2 115 0 31 2 5 3 -58 3 -63 0 -89 -1 -57 -3z"/>
<path d="M627 1573 c-11 -10 -8 -43 3 -43 6 0 10 11 10 25 0 26 -2 29 -13 18z"/>
<path d="M289 1483 c-7 -65 -8 -63 45 -63 53 0 54 16 1 22 -42 4 -40 33 2 34
52 1 51 14 0 14 -26 0 -47 -3 -48 -7z"/>
<path d="M296 1391 c-14 -15 -15 -24 -6 -40 16 -30 56 -32 78 -3 16 21 15 27
-4 46 -21 21 -47 20 -68 -3z m60 -12 c3 -6 -1 -18 -10 -27 -15 -15 -17 -15
-32 0 -19 19 -11 38 16 38 10 0 22 -5 26 -11z"/>
<path d="M490 1390 c0 -5 -8 -10 -17 -10 -17 -1 -17 -1 0 -14 10 -8 17 -26 17
-45 0 -17 5 -31 10 -31 6 0 10 25 10 55 0 30 -4 55 -10 55 -5 0 -10 -4 -10
-10z"/>
<path d="M544 1387 c-3 -8 -4 -32 -2 -53 3 -36 5 -39 33 -39 29 0 30 1 30 50
0 47 -2 50 -28 53 -17 2 -29 -2 -33 -11z m46 -42 c0 -24 -5 -35 -15 -35 -10 0
-15 11 -15 35 0 24 5 35 15 35 10 0 15 -11 15 -35z"/>
<path d="M664 1386 c-3 -8 -4 -31 -2 -52 3 -36 5 -39 33 -39 28 0 30 3 33 38
2 21 -2 45 -9 53 -15 18 -48 18 -55 0z m46 -41 c0 -37 -22 -49 -34 -19 -9 23
2 54 20 54 9 0 14 -11 14 -35z"/>
<path d="M870 1338 c0 -5 46 -7 103 -6 106 1 94 6 -31 10 -39 2 -72 0 -72 -4z"/>
<path d="M5605 1340 l-90 -6 103 -2 c62 -1 102 2 102 8 0 6 -6 9 -12 8 -7 -1
-53 -5 -103 -8z"/>
<path d="M1733 1333 c59 -2 155 -2 215 0 59 1 10 3 -108 3 -118 0 -167 -2
-107 -3z"/>
<path d="M2703 1333 c59 -2 155 -2 215 0 59 1 10 3 -108 3 -118 0 -167 -2
-107 -3z"/>
<path d="M3673 1333 c59 -2 155 -2 215 0 59 1 10 3 -108 3 -118 0 -167 -2
-107 -3z"/>
<path d="M4642 1333 c59 -2 158 -2 220 0 62 1 14 3 -107 3 -121 0 -172 -2
-113 -3z"/>
<path d="M290 1300 c0 -5 18 -10 40 -10 22 0 40 5 40 10 0 6 -18 10 -40 10
-22 0 -40 -4 -40 -10z"/>
<path d="M620 1290 c0 -11 5 -20 10 -20 6 0 10 9 10 20 0 11 -4 20 -10 20 -5
0 -10 -9 -10 -20z"/>
<path d="M278 1266 c-15 -11 -15 -13 3 -24 11 -7 19 -8 19 -2 0 5 15 10 34 10
19 0 38 5 41 11 11 17 -2 21 -24 7 -16 -10 -25 -10 -39 -2 -13 9 -22 9 -34 0z"/>
<path d="M323 1223 c-29 -4 -33 -8 -33 -34 0 -20 5 -29 16 -29 13 0 14 3 4 15
-6 8 -8 19 -4 26 4 7 12 0 20 -20 14 -33 28 -39 41 -18 12 19 12 67 -1 65 -6
0 -26 -3 -43 -5z m35 -36 c5 -24 -15 -21 -21 4 -3 13 -1 19 6 16 7 -2 13 -11
15 -20z"/>
<path d="M288 1145 c-3 -3 -4 -15 -1 -26 4 -15 14 -19 44 -19 22 0 39 5 39 10
0 6 -12 10 -26 10 -15 0 -32 7 -38 16 -6 8 -14 12 -18 9z"/>
<path d="M545 1132 c-3 -3 -5 -17 -5 -32 0 -24 3 -27 25 -22 18 3 25 0 25 -11
0 -23 -18 -31 -37 -16 -13 11 -15 11 -12 -6 3 -11 12 -21 22 -23 46 -9 67 63
22 74 -33 8 -32 24 2 24 14 0 23 3 19 7 -8 9 -54 12 -61 5z"/>
<path d="M676 1127 c-13 -9 -17 -24 -14 -51 6 -76 68 -71 68 5 0 45 -26 67
-54 46z m29 -47 c0 -38 -20 -52 -30 -21 -8 27 3 63 18 58 7 -2 12 -19 12 -37z"/>
<path d="M274 1076 c-17 -13 -17 -14 4 -25 14 -7 23 -8 27 -1 3 5 19 10 35 10
28 0 45 12 34 23 -4 3 -15 1 -25 -6 -15 -9 -23 -9 -38 0 -15 9 -23 9 -37 -1z"/>
<path d="M875 1080 c-4 -6 31 -10 97 -10 70 0 98 3 88 10 -20 13 -177 13 -185
0z"/>
<path d="M1650 1080 c-10 -6 56 -10 195 -9 126 0 202 4 190 9 -28 12 -367 12
-385 0z"/>
<path d="M2609 1079 c-8 -5 67 -9 196 -9 142 0 205 4 195 10 -19 13 -371 12
-391 -1z"/>
<path d="M3600 1080 c-10 -6 54 -10 190 -10 136 0 200 4 190 10 -8 5 -94 10
-190 10 -96 0 -182 -5 -190 -10z"/>
<path d="M4560 1080 c-10 -6 56 -10 195 -10 139 0 205 4 195 10 -8 5 -96 10
-195 10 -99 0 -187 -5 -195 -10z"/>
<path d="M5530 1080 c-10 -7 17 -10 88 -10 57 0 101 4 98 9 -8 12 -168 13
-186 1z"/>
<path d="M623 1030 c1 -11 5 -20 9 -20 4 0 8 9 8 20 0 11 -4 20 -9 20 -6 0 -9
-9 -8 -20z"/>
<path d="M323 1033 c-30 -4 -33 -7 -33 -39 0 -34 0 -34 45 -34 54 0 60 18 8
22 -48 4 -54 33 -8 33 17 0 31 4 33 10 4 12 -3 13 -45 8z"/>
<path d="M302 932 c-30 -25 -14 -62 27 -62 33 0 55 27 45 54 -9 23 -27 20 -19
-3 3 -11 1 -22 -5 -26 -6 -4 -10 4 -10 19 0 33 -13 40 -38 18z m18 -24 c0 -16
-3 -19 -11 -11 -6 6 -8 16 -5 22 11 17 16 13 16 -11z"/>
<path d="M550 865 c-18 -22 -15 -77 6 -92 28 -21 54 1 54 45 0 56 -32 80 -60
47z m38 -42 c-2 -21 -7 -38 -13 -38 -5 0 -11 17 -13 38 -3 29 0 37 13 37 13 0
16 -8 13 -37z"/>
<path d="M672 868 c-19 -19 -15 -86 6 -97 29 -16 52 5 52 47 0 38 -14 62 -35
62 -6 0 -16 -5 -23 -12z m36 -45 c-3 -41 -23 -55 -33 -24 -9 28 3 61 21 61 11
0 14 -9 12 -37z"/>
<path d="M290 840 c-8 -15 -6 -24 10 -40 11 -11 26 -20 34 -20 15 0 46 26 46
39 0 15 -29 46 -36 39 -4 -4 -1 -15 6 -24 12 -13 11 -17 -1 -25 -18 -11 -20
-11 -39 1 -12 7 -12 12 -2 22 14 14 16 28 2 28 -5 0 -14 -9 -20 -20z"/>
<path d="M875 820 c4 -7 46 -10 106 -9 54 1 96 5 93 10 -3 5 -50 9 -105 9 -67
0 -98 -3 -94 -10z"/>
<path d="M1635 820 c-4 -7 67 -10 205 -10 138 0 209 3 205 10 -4 6 -83 10
-205 10 -122 0 -201 -4 -205 -10z"/>
<path d="M2620 821 c0 -6 85 -10 201 -11 136 0 199 3 194 10 -8 13 -395 14
-395 1z"/>
<path d="M3575 819 c-4 -5 78 -9 205 -9 143 0 209 3 205 10 -8 13 -402 12
-410 -1z"/>
<path d="M4545 820 c-4 -7 69 -10 212 -10 144 0 213 4 203 10 -20 13 -407 13
-415 0z"/>
<path d="M5520 820 c-10 -7 19 -10 93 -10 65 0 107 4 107 10 0 13 -180 13
-200 0z"/>
<path d="M623 770 c1 -11 5 -20 9 -20 4 0 8 9 8 20 0 11 -4 20 -9 20 -6 0 -9
-9 -8 -20z"/>
<path d="M292 757 c-7 -8 -7 -18 -2 -27 5 -8 6 -18 4 -22 -3 -4 16 -7 43 -7
34 2 39 3 18 6 -63 10 -74 43 -15 43 22 0 40 5 40 10 0 15 -76 12 -88 -3z"/>
<path d="M1272 638 c2 -29 7 -53 13 -53 5 0 10 9 10 19 0 29 20 30 33 1 6 -14
16 -25 22 -25 15 0 12 15 -9 41 -19 24 -19 24 1 47 12 12 17 22 11 22 -5 0
-18 -9 -28 -20 -10 -11 -22 -20 -28 -20 -5 0 -7 9 -4 20 3 13 0 20 -9 20 -12
0 -14 -12 -12 -52z"/>
<path d="M1393 675 c-10 -10 -10 -14 0 -18 7 -2 11 -18 9 -40 -2 -22 1 -37 7
-37 7 0 11 22 11 55 0 56 -6 65 -27 40z"/>
<path d="M2246 643 c0 -27 5 -50 10 -53 5 -3 9 4 9 14 0 29 20 30 35 1 12 -22
20 -25 67 -25 34 0 52 4 48 10 -3 6 -16 10 -27 10 -21 0 -20 2 7 30 23 24 26
32 15 45 -7 8 -20 15 -30 15 -20 0 -46 -27 -36 -37 3 -4 13 2 20 13 14 18 15
18 21 2 5 -12 -2 -27 -22 -46 l-28 -29 -18 23 c-21 28 -21 33 0 56 9 10 12 18
6 18 -5 0 -18 -9 -28 -20 -10 -11 -22 -20 -28 -20 -5 0 -7 9 -4 20 3 12 0 20
-6 20 -8 0 -12 -18 -11 -47z"/>
<path d="M3220 635 c0 -30 5 -55 10 -55 6 0 10 11 10 25 0 32 9 32 36 -2 12
-16 26 -25 30 -20 4 4 -2 17 -14 30 -27 29 -27 34 1 58 15 12 17 18 8 19 -8 0
-25 -10 -38 -22 l-23 -21 0 21 c0 12 -4 22 -10 22 -5 0 -10 -25 -10 -55z"/>
<path d="M3321 676 c-7 -8 -8 -17 -3 -20 6 -3 13 2 16 11 5 12 10 13 18 5 8
-8 8 -15 -1 -25 -9 -12 -8 -16 4 -21 22 -8 19 -26 -5 -26 -11 0 -20 5 -20 11
0 5 -5 7 -10 4 -15 -9 7 -35 30 -35 30 0 41 24 32 66 -9 43 -38 57 -61 30z"/>
<path d="M4190 635 c0 -30 5 -55 10 -55 6 0 10 11 10 25 0 32 9 32 36 -2 12
-16 25 -25 29 -21 4 4 -2 19 -14 34 l-21 27 22 24 c28 30 3 31 -29 1 l-23 -21
0 21 c0 12 -4 22 -10 22 -5 0 -10 -25 -10 -55z"/>
<path d="M4305 655 c-28 -36 -26 -55 6 -55 10 0 19 -5 19 -11 0 -6 7 -3 16 6
13 12 14 19 4 30 -7 8 -10 26 -6 40 9 35 -8 31 -39 -10z m21 -32 c-11 -11 -19
6 -11 24 8 17 8 17 12 0 3 -10 2 -21 -1 -24z"/>
<path d="M5160 635 c0 -30 5 -55 10 -55 6 0 10 9 10 19 0 32 17 33 38 4 11
-16 23 -25 27 -21 4 4 -2 20 -13 36 l-21 29 22 21 c29 30 1 30 -30 0 l-23 -21
0 21 c0 12 -4 22 -10 22 -5 0 -10 -25 -10 -55z"/>
<path d="M5266 674 c-13 -33 -7 -45 19 -38 21 5 25 3 25 -15 0 -23 -19 -28
-39 -8 -10 10 -12 8 -9 -8 2 -13 12 -21 30 -23 22 -3 29 2 34 22 7 31 -1 46
-27 46 -12 0 -19 5 -16 13 2 6 11 11 20 9 8 -1 18 2 22 8 4 6 -6 10 -23 10
-18 0 -32 -6 -36 -16z"/>
<path d="M294 666 c-3 -8 -4 -25 -2 -38 2 -18 10 -24 35 -26 27 -3 35 1 44 22
9 20 9 29 -1 41 -16 19 -69 20 -76 1z m61 -26 c0 -18 -33 -26 -47 -12 -6 6 -7
15 -3 22 10 16 50 8 50 -10z"/>
<path d="M290 575 c-10 -12 -9 -20 4 -40 19 -28 47 -32 70 -9 20 20 20 38 1
54 -19 16 -32 5 -16 -13 9 -11 8 -17 -4 -27 -22 -19 -48 5 -34 31 12 23 -3 26
-21 4z"/>
<path d="M2520 321 c0 -57 2 -61 23 -61 36 0 67 27 67 59 0 34 -15 49 -58 57
l-32 7 0 -62z m54 26 c25 -18 18 -61 -11 -65 -21 -3 -23 1 -23 37 0 44 6 49
34 28z"/>
<path d="M2826 364 c-9 -8 -13 -21 -9 -27 5 -8 8 -8 11 1 4 14 32 16 32 3 0
-5 -6 -12 -12 -15 -9 -3 -8 -8 5 -16 9 -6 17 -15 17 -20 0 -15 -38 -12 -43 3
-2 6 -8 9 -12 5 -11 -11 14 -38 35 -38 25 0 44 26 35 47 -5 10 -7 24 -6 31 2
15 -17 42 -30 42 -4 0 -15 -7 -23 -16z"/>
<path d="M3127 374 c-4 -4 -7 -31 -7 -61 0 -52 1 -53 29 -53 16 0 37 7 45 16
17 16 21 61 8 81 -10 15 -64 28 -75 17z m61 -58 c-2 -23 -8 -32 -25 -34 -20
-3 -23 1 -23 31 0 40 5 46 31 40 16 -4 19 -13 17 -37z"/>
<path d="M3450 371 c0 -6 -7 -11 -15 -11 -8 0 -15 -7 -15 -15 0 -9 6 -12 15
-9 12 5 15 -3 15 -35 0 -23 5 -41 10 -41 6 0 10 24 10 54 0 30 -4 58 -10 61
-5 3 -10 1 -10 -4z"/>
<path d="M3516 340 c-32 -49 -32 -50 -1 -50 16 0 25 -6 25 -15 0 -20 18 -19
22 2 5 27 -3 103 -12 103 -4 0 -19 -18 -34 -40z m20 -37 c-11 -11 -17 4 -9 23
7 18 8 18 11 1 2 -10 1 -21 -2 -24z"/>
<path d="M2407 353 c-2 -4 -5 -23 -5 -40 -1 -31 1 -33 36 -33 36 0 37 1 36 37
-1 35 -4 38 -32 41 -16 2 -32 -1 -35 -5z"/>
<path d="M3009 356 c0 0 -1 -18 -2 -39 -2 -37 -2 -37 36 -37 38 0 38 0 35 37
-3 35 -6 38 -35 39 -18 1 -33 1 -34 0z"/>
<path d="M2627 343 c-14 -13 -6 -24 13 -18 11 4 20 2 20 -4 0 -6 -6 -11 -14
-11 -19 0 -36 -23 -28 -37 4 -7 22 -11 39 -11 30 1 32 3 27 32 -3 17 -7 37
-10 44 -4 13 -36 17 -47 5z"/>
<path d="M2690 341 c0 -5 7 -25 15 -44 14 -33 13 -37 -2 -46 -10 -5 -15 -13
-11 -16 15 -15 34 5 52 54 20 58 15 83 -7 30 l-13 -34 -12 33 c-10 30 -22 43
-22 23z"/>
<path d="M3227 343 c-15 -14 -6 -23 18 -17 33 8 32 -4 -1 -16 -37 -14 -28 -45
13 -47 31 -1 32 0 27 30 -3 18 -7 38 -10 45 -4 13 -36 17 -47 5z m43 -53 c0
-5 -9 -10 -21 -10 -11 0 -17 5 -14 10 3 6 13 10 21 10 8 0 14 -4 14 -10z"/>
<path d="M3295 333 c29 -70 30 -74 15 -83 -8 -5 -11 -12 -7 -16 4 -4 13 -1 20
7 19 20 51 98 44 105 -10 10 -27 -6 -27 -27 0 -27 -17 -24 -24 6 -4 14 -11 25
-17 25 -7 0 -8 -7 -4 -17z"/>
</g>
</svg>
